<svg fill="none" height="32" viewBox="0 0 32 32" width="32" xmlns="http://www.w3.org/2000/svg"><g fill="#2196f3"><rect height="32" opacity=".1" rx="8" width="32"/><path d="m17.3296 19.692v2.2661h2.6949v.7437h-8.0496v-.7437h2.7036v-2.2661zm-8.3296-1.9249v.7087c-.00015.1187.02385.2361.07053.3452s.11507.2076.20101.2895c.08594.0818.18763.1453.29888.1866.11126.0413.22976.0596.34828.0536h12.2056c.2321 0 .4546-.0922.6187-.2562.1641-.1641.2563-.3867.2563-.6187v-.7262zm13.1243-8.7671h-12.2056c-.23205 0-.4546.09218-.61868.25627-.16409.16409-.25627.38663-.25627.61869v6.98214h13.95555v-6.94715c.0047-.11781-.0144-.23536-.0563-.34558-.0418-.11023-.1055-.21086-.1873-.29585-.0817-.08499-.1797-.15259-.2882-.19873-.1085-.04615-.2252-.06988-.3432-.06979zm-.8749 4.8123c-.0319.0906-.0911.169-.1694.2246-.0784.0555-.1721.0853-.2681.0853s-.1897-.0298-.2681-.0853c-.0783-.0556-.1375-.134-.1694-.2246v-2.1874c.0319-.0906.0911-.1691.1694-.2246.0784-.0555.1721-.0854.2681-.0854s.1897.0299.2681.0854c.0783.0555.1375.134.1694.2246z"/></g></svg>