<svg fill="none" height="32" viewBox="0 0 32 32" width="32" xmlns="http://www.w3.org/2000/svg"><g fill="#2196f3"><rect height="32" opacity=".1" rx="8" width="32"/><path d="m9.99961 16.989v-3.495c0-.3003.19999-.4995.50029-.4995h.9997c.3003 0 .5002.1992.5002.4995v3.495h.9998v-3.495c0-.3003.2006-.4995.5002-.4995h1.0005c.2995 0 .4995.1992.4995.4995v3.3903l2.2001-2.2924c.2-.0996.3999-.1992.5999-.0996.1999.0996.3999.2995.3999.5991v1.697l1.3-2.1965c.1003-.1992.3999-.2996.6006-.1992.1992.0996.3999.2995.3999.5991v1.7973l1.4999-2.696c.0996-.1999.3999-.3003.5999-.1999.1999.0996.3999.2995.3999.5991v8.1698c-.0002.0844-.0339.1653-.0936.2249-.0598.0596-.1408.0931-.2252.0931h-13.36249c-.08428 0-.16512-.0334-.22486-.0929-.05973-.0594-.09348-.1401-.09387-.2244v-4.9751c0-.3858.31357-.6987.70018-.6987zm7.29989-3.9945c-.6994 0-1.3-.5991-1.3-1.3981 0-.7991.6006-1.2986 1.3-1.2986.2007 0 .4007 0 .6006.1004.3999-.39994.9001-.59915 1.5-.49954.3999-.59911.9997-.89866 1.5996-.89866 1.1 0 2.0002.89866 2.0002 1.9973-.002.5294-.2133 1.0367-.5879 1.4109-.3747.3742-.8821.585-1.4116.5863-.4006 0-.7009-.1003-1.0005-.2995-.5002.2995-1.3.2995-1.8002 0-.1992.1992-.4995.2995-.9002.2995zm-4.2999 7.4888v-.9982c0-.2996-.1992-.4995-.4995-.4995h-1.0005c-.2996 0-.4995.1999-.4995.4995v.999c0 .2995.1992.4987.4995.4987h1.0005c.2995 0 .4995-.1992.4995-.4987zm4.0004 0v-.9982c0-.2996-.2-.4995-.5003-.4995h-.9997c-.3003 0-.5002.1999-.5002.4995v.999c0 .2995.1999.4987.5002.4987h.9997c.3003 0 .5003-.1992.5003-.4987zm3.9997 0v-.9982c0-.2996-.1992-.4995-.4995-.4995h-1.0012c-.2996 0-.4995.1999-.4995.4995v.999c0 .2995.1992.4987.4995.4987h1.0004c.2996 0 .4995-.1992.4995-.4987z"/></g></svg>