<svg fill="none" height="32" viewBox="0 0 32 32" width="32" xmlns="http://www.w3.org/2000/svg"><g fill="#ff7474"><rect height="32" opacity=".1" rx="8" width="32"/><path d="m9.58326 14.8969c0-.8149.52754-1.8678 1.18194-2.349 0 0 4.7128-3.5479 5.4496-3.5479.7369 0 5.4571 3.5531 5.4571 3.5531.6484.4789 1.1745 1.5267 1.1745 2.3431v6.6279c.0004.1934-.0373.385-.111.5639-.0736.1789-.1818.3415-.3183.4785-.1365.1371-.2987.2459-.4772.3203-.1786.0743-.3701.1128-.5635.1132h-10.3231c-.1935-.0002-.3851-.0385-.5637-.1129-.1787-.0743-.3409-.1831-.4774-.3202-.13658-.1371-.24475-.2997-.31834-.4787-.0736-.1789-.11118-.3706-.1106-.5641zm2.94734-.7324v1.4604c0 .4171.3331.7435.7442.7435h1.459c.4178 0 .7442-.333.7442-.7442v-1.4589c0-.4178-.3331-.7442-.7442-.7442h-1.459c-.4178 0-.7442.333-.7442.7442zm5.3687-.8282-1.0316 1.0323c-.2948.2948-.2911.7619 0 1.0522l1.0316 1.0316c.2947.2948.7619.2911 1.0522 0l1.0315-1.0316c.2948-.2947.2911-.7619 0-1.0522l-1.0315-1.0315c-.2948-.2948-.7619-.2911-1.0522 0zm-5.3687 5.25v1.4604c0 .4171.3331.7435.7442.7435h1.459c.4178 0 .7442-.333.7442-.7442v-1.4589c0-.4178-.3331-.7443-.7442-.7443h-1.459c-.4178 0-.7442.3331-.7442.7443zm4.4211 0v1.4604c0 .4171.333.7435.7442.7435h1.4589c.4178 0 .7442-.333.7442-.7442v-1.4589c0-.4178-.333-.7443-.7442-.7443h-1.4589c-.4178 0-.7442.3331-.7442.7443z"/></g></svg>