<svg fill="none" height="32" viewBox="0 0 32 32" width="32" xmlns="http://www.w3.org/2000/svg"><g fill="#2196f3"><rect height="32" opacity=".1" rx="8" width="32"/><path d="m12.3076 16.3848h2.5293c.1906.0001.3746.0701.517.1967.1425.1267.2335.3012.2558.4905l.0055.0911v2.5293c0 .6474-.19 1.2805-.5464 1.8209s-.8635.9644-1.4585 1.2194c-.595.2549-1.2518.3297-1.8889.2149-.6371-.1147-1.2265-.4138-1.6952-.8604-.46875-.4465-.79613-1.0207-.9416-1.6515s-.10265-1.2904.12317-1.8971.62471-1.1338 1.14723-1.5159c.5225-.3822 1.1457-.6026 1.7923-.634l.1603-.0039h2.5293zm7.3817 0c.6542 0 1.2937.194 1.8376.5575.5439.3634.9679.88 1.2182 1.4844.2504.6043.3159 1.2694.1882 1.911-.1276.6416-.4426 1.231-.9052 1.6935-.4626.4626-1.0519.7776-1.6935.9052-.6416.1277-1.3067.0622-1.911-.1882-.6044-.2503-1.121-.6743-1.4844-1.2182-.3635-.5439-.5575-1.1834-.5575-1.8376v-2.5293c0-.2064.082-.4044.228-.5503.1459-.146.3439-.228.5503-.228zm-7.3817-7.3848c.4343 0 .8644.08555 1.2657.25177.4013.16623.7659.40986 1.0731.717.3071.30713.5508.67173.717 1.07303s.2518.8314.2518 1.2658v2.5293c0 .2064-.082.4044-.228.5503-.1459.146-.3439.228-.5503.228h-2.5293c-.8772 0-1.7185-.3485-2.33883-.9688-.62029-.6203-.96877-1.4616-.96877-2.3388s.34848-1.7185.96877-2.33883c.62033-.62029 1.46163-.96877 2.33883-.96877zm7.3817 0c.8633.00002 1.6924.33759 2.3102.94061.6179.60299.9754 1.42369.9963 2.28679.021.8631-.2964 1.7001-.8842 2.3324-.5879.6322-1.3997 1.0096-2.262 1.0515l-.1603.0039h-2.5293c-.1908.0001-.3749-.0698-.5176-.1965-.1426-.1267-.2337-.3013-.256-.4907l-.0047-.0911v-2.5293c0-.4344.0856-.8645.2518-1.2658s.4099-.7659.717-1.07303c.3071-.30714.6718-.55077 1.0731-.717.4012-.16622.8314-.25177 1.2657-.25177z"/></g></svg>