<svg fill="none" height="32" viewBox="0 0 32 32" width="32" xmlns="http://www.w3.org/2000/svg"><g fill="#ff7474"><rect height="32" opacity=".1" rx="8" width="32"/><path clip-rule="evenodd" d="m21.9622 13.5505h-10.1511c-.3854 0-.7001-.3132-.7001-.7001v-3.15032c0-.38689.3132-.70008.7001-.70008h10.1511c.3868 0 .7.31319.7.70008v3.15032c0 .3869-.3132.7001-.7.7001zm-8.3887-3.5004h-.35c-.7784 0-1.4124.6341-1.4124 1.4124 0 .1935.1565.3501.35.3501.1934 0 .35-.1566.35-.3501 0-.393.3194-.7123.7124-.7123h.35c.1935 0 .3501-.1566.3501-.35 0-.1935-.1566-.3501-.3501-.3501zm8.3887 8.7617h-10.1511c-.3854 0-.7001-.3132-.7001-.7001v-3.1503c0-.3869.3132-.7001.7001-.7001h10.1511c.3868 0 .7.3132.7.7001v3.1503c0 .3869-.3132.7001-.7.7001zm-8.3887-3.442h-.35c-.7784 0-1.4124.634-1.4124 1.4124 0 .1935.1565.35.35.35.1934 0 .35-.1565.35-.35 0-.393.3194-.7123.7124-.7123h.35c.1935 0 .3501-.1566.3501-.3501 0-.1934-.1566-.35-.3501-.35zm-3.1733 4.1452h11.9013c.3868 0 .7.3132.6985.6985 0 .3869-.3132.7001-.7001.7001h-.6033c.0476.1397.0783.2855.0783.4406 0 .7738-.6264 1.4002-1.4002 1.4002s-1.4001-.6264-1.4001-1.4002c0-.1551.0322-.3009.0783-.4406h-4.8376c.0476.1397.0783.2855.0783.4406 0 .7738-.6264 1.4002-1.4002 1.4002s-1.4001-.6264-1.4001-1.4002c0-.1551.0322-.3009.0783-.4406h-1.87152c-.38689 0-.70008-.3132-.70008-.7001v-10.51035c0-.38535.31319-.70008.70008-.69854.38692 0 .70012.31319.70012.70007z" fill-rule="evenodd"/></g></svg>