<svg fill="none" height="32" viewBox="0 0 32 32" width="32" xmlns="http://www.w3.org/2000/svg"><g fill="#857bff"><rect height="32" opacity=".1" rx="8" width="32"/><path clip-rule="evenodd" d="m22.9809 12.6735c-.0014-.0082-.0028-.0164-.0041-.0232-.0028-.0164-.0055-.0315-.0082-.0465-.0041-.0232-.0096-.0465-.0151-.0697-.0055-.0233-.0109-.0465-.0178-.0697-.0177-.0616-.0369-.1217-.0601-.1805-.0178-.0438-.0369-.0875-.0574-.1299-.0035-.0075-.0072-.0147-.011-.0219-.0037-.0071-.0075-.0143-.0109-.0218l-.0205-.037c-.0055-.0088-.0106-.0181-.0157-.0273l-.0001-.0001c-.0051-.0092-.0102-.0184-.0157-.0272-.0109-.0178-.0218-.0356-.0341-.0534l-.2913-.4416-.6835-1.0349-.1915-.2899-.0998-.1504h.0001c-.0096-.015-.0205-.03-.0315-.0451-.0109-.01502-.0219-.0287-.0342-.04237l.0003.00034-.0003-.00033c-.0232-.02735-.0492-.05333-.0752-.07793-.0027-.00206-.0051-.00445-.0075-.00684v-.00001c-.0024-.00239-.0048-.00478-.0075-.00683l-.0036-.0031v-.00001c-.0087-.00744-.0183-.01568-.0279-.02286l-.0164-.01231c-.1504-.11347-.3336-.17636-.5263-.17636h-9.4268c-.2297 0-.4471.09023-.6084.24609l-.0191.01914c-.0383.03828-.0725.08068-.1026.12718l-1.26736 1.9168c-.18897.2864-.28975.622-.28984.9652v.9174c0 .041.00273.0834.00684.123 0 .0059.00099.0117.00214.0184l.00059.0035c0 .0014.00034.0031.00068.0048.00035.0017.00069.0034.00069.0048.00136.0095.00273.0191.0041.0273v.0014l.0041.0205.00051.0031c.00122.0074.00256.0157.00496.0229l.00003.0001c.00002.0033.00091.0066.00196.0098l.00211.0106c.34727 1.5627.55371 3.1527.55371 4.7537v3.5041h12.83648v-3.5041c0-1.601.2065-3.191.5538-4.7537l.0041-.0205c.0006-.0041.0017-.0086.0027-.013.001-.0045.002-.0089.0027-.013l.0041-.0205v-.0014c.0014-.0096.0028-.0191.0041-.0273 0-.0023.0004-.0041.0008-.0058.0003-.0013.0006-.0026.0006-.0038.0007-.0036.0011-.0072.0014-.011.0003-.0034.0007-.007.0013-.0109.0041-.041.0069-.082.0069-.123v-.9174c-.0014-.0861-.0082-.1709-.0205-.2557zm-1.5682-2.6701.003.0041zm-5.9459 10.6654h-4.4324v-2.9777h4.4324zm4.4707.7999h-1.0937v-2.625c0-.1204.0984-.2188.2187-.2188h.6563c.1203 0 .2187.0984.2187.2188zm1.6051-5.6889c-.5168-.0137-.9858-.201-1.3426-.5018-.3924.3268-.8887.5059-1.4.5018-.5387 0-1.0295-.1901-1.4-.5018-.3937.3282-.8887.5059-1.4014.5018-.5386 0-1.0295-.1901-1.4-.5018-.3923.3268-.8886.5045-1.4.5018-.5386 0-1.0295-.1901-1.4-.5018-.3787.3145-.8517.4922-1.3425.5018v-.6877h.0027c.0096 0 .0191 0 .0273-.0014h.0096c.0034 0 .0068-.0003.0103-.0007.0034-.0003.0068-.0006.0102-.0006.0055 0 .0096 0 .015-.0014.0042-.0007.0086-.001.013-.0014.0045-.0003.0089-.0007.013-.0013h.0041c.0218-.0028.0423-.0055.0628-.0082h.0001c.0021 0 .0038-.0004.0055-.0007.0017-.0004.0034-.0007.0055-.0007l.0232-.0041c.0014 0 .0041 0 .0068-.0014.0048-.0007.0099-.0017.0151-.0027.0051-.001.0102-.0021.015-.0028h.0027c.0048-.0006.0093-.0017.0137-.0027.0045-.001.0089-.002.0137-.0027.0014 0 .0027-.0004.0041-.0007s.0027-.0007.0041-.0007c.0205-.0041.041-.0096.0615-.015l.0328-.0082c.0055-.0014.0106-.0031.0158-.0048.0051-.0017.0102-.0034.0157-.0048.0054-.0014.0106-.0031.0157-.0048s.0103-.0034.0157-.0048c.0055-.002.0106-.0037.0157-.0054.0052-.0018.0103-.0035.0158-.0055l.0124-.0044c.0061-.0021.0119-.0041.0176-.0065.011-.0041.0205-.0082.0301-.0123v-.0001l.0151-.0061.015-.0062c.0215-.0087.0422-.0189.0628-.029l.0247-.012c.0048-.0027.0096-.0051.0144-.0075.0047-.0024.0095-.0048.0143-.0075.0602-.0328.1176-.0697.1709-.1094.0055-.0041.011-.0082.0178-.0137l.0246-.0205c.0096-.0068.0178-.0136.026-.0218.0039-.0033.0075-.0065.0109-.0096.0038-.0035.0074-.0067.0109-.0096.0082-.0068.0164-.0137.0233-.0219l.007-.0067c.005-.0047.0103-.0096.0149-.0151l.0218-.0219c.0096-.0096.0192-.0191.0274-.0301.002-.002.0041-.0044.0061-.0068.0021-.0024.0041-.0048.0062-.0069.0027-.0027.0055-.0054.0068-.0082.0041-.0054.0096-.0109.0137-.015l.0055-.0055c.0054-.0068.0109-.0136.0177-.0218l.0028-.0035c.0049-.0061.0104-.0129.015-.0198l.0041-.0041c.0055-.0068.0096-.0123.0137-.0191.0007-.0014.0017-.0024.0027-.0034.001-.0011.0021-.0021.0027-.0035l.0124-.0164c.0027-.0027.0041-.0054.0054-.0095.0021-.0028.0041-.0059.0062-.0089.002-.0031.0041-.0062.0061-.0089.0021-.0034.0045-.0068.0069-.0103.0024-.0034.0047-.0068.0068-.0102.002-.0034.0041-.0065.0061-.0096h.0001c.002-.0031.0041-.0061.0061-.0096l.0033-.0057c.0031-.0054.0064-.0111.0104-.0161.0013-.0021.0024-.0041.0034-.0062.001-.002.002-.0041.0034-.0061.0014-.0028.0031-.0055.0048-.0082.0017-.0028.0034-.0055.0048-.0082.002-.0041.0041-.0079.0061-.0117.0021-.0037.0041-.0075.0062-.0116l.0041-.0089.0041-.0089c.0007-.002.0017-.0037.0027-.0054.0011-.0017.0021-.0035.0028-.0055.0013-.0034.003-.0068.0047-.0103.0018-.0034.0035-.0068.0048-.0102.0007-.0007.0011-.0017.0014-.0027.0003-.0011.0007-.0021.0014-.0028.0041-.0082.0082-.0178.0109-.026.0027-.0068.0055-.0136.0082-.0191.0007-.0027.0017-.0051.0027-.0075.0011-.0024.0021-.0048.0028-.0075.0013-.0041.003-.0082.0048-.0123.0017-.0041.0034-.0082.0047-.0123l.0041-.013.0041-.013v-.0014c.0012-.0041.0026-.0081.0041-.0123.0019-.0057.0039-.0115.0055-.0178.0007-.0034.0017-.0065.0028-.0095.001-.0031.002-.0062.0027-.0096.0014-.0055.0027-.0109.0041-.0178.0014-.0041.0024-.0085.0034-.013.001-.0044.0021-.0089.0034-.013.0007-.0041.0017-.0078.0028-.0116.001-.0037.002-.0075.0027-.0116 0-.0014.0003-.0024.0007-.0034.0003-.001.0007-.0021.0007-.0034.0006-.0048.0017-.0099.0027-.0151.001-.0051.002-.0102.0027-.015.0014-.0082.0028-.0164.0041-.0233.0007-.0061.0017-.0126.0028-.0191.001-.0065.002-.013.0027-.0191l.0004-.0033c.0012-.0096.0023-.0184.0023-.0282 0-.0026.0003-.0051.0007-.0079.0003-.003.0007-.0062.0007-.0099 0-.0027.0003-.0054.0007-.0082.0003-.0027.0007-.0054.0007-.0082.0013-.0205.0013-.041.0013-.0629 0 .6891.6276 1.2469 1.4 1.2469.7725 0 1.4-.5592 1.4-1.2469 0 .6891.6276 1.2469 1.4 1.2469.7739 0 1.4-.5592 1.4-1.2469 0 .6891.6276 1.2469 1.4014 1.2469.7725 0 1.4-.5592 1.4-1.2469 0 .0206 0 .0424.0014.0629 0 .0055 0 .011.0013.0164 0 .0055 0 .0124.0014.0178.0007.0055.001.0106.0014.0157.0003.0052.0007.0103.0013.0158l.0004.0033c.0013.0114.0026.0238.0051.0349.0014.0082.0027.0165.0041.0233.0007.0048.0017.0099.0027.015.0011.0052.0021.0103.0028.0151 0 .0027 0 .0041.0013.0068.0014.0082.0028.0164.0055.0232.0014.0082.0041.0178.0068.026.0014.0055.0028.011.0042.0178.0013.0068.0027.0123.0054.0191.0028.0096.0055.0192.0096.0301v.0014l.0041.013.0041.013c.0027.0082.0055.0164.0096.0246.0005.0021.0012.004.002.0058.0002.0006.0005.0011.0007.0017.001.0024.002.0048.0027.0075.0028.0068.0055.0137.0082.0191l.0042.0103c.0022.0055.0042.0106.0068.0157.0002.0002.0003.0004.0005.0007.0003.0006.0006.0013.0008.0021.0004.001.0007.002.0014.0027.0027.0068.0055.0137.0096.0205.0013.0041.0027.0068.0054.0109l.0041.0089.0041.0089c.0021.0041.0042.0079.0062.0116.0021.0038.0041.0076.0062.0117.0027.0054.0054.0109.0095.0164.0014.002.0024.0041.0034.0061.0011.0021.0021.0041.0035.0062l.0033.0057c.003.0054.0063.0111.0103.0161l.0034.0055h.0001c.0028.0045.0055.0088.0075.0137.0041.0068.0082.0137.0136.0205.0021.0027.0041.0058.0062.0089.002.003.0041.0061.0061.0089.0006.001.0013.002.002.0031.0013.0018.0027.0039.0035.0064l.0123.0164c.0014.0028.0028.0041.0055.0069.0033.0055.0075.011.0112.0158.0008.0012.0017.0023.0025.0033l.0041.0041c.0027.0041.0058.0079.0088.0116l.0001.0001c.003.0037.0061.0075.0088.0116.0055.0068.011.0136.0178.0218l.0013.0016c.001.0013.0023.0029.0042.0039.0041.0055.0082.0109.0136.015.0014.0014.0024.0028.0035.0041.001.0014.002.0028.0034.0041.002.0021.0041.0045.0061.0069.0021.0024.0041.0048.0062.0068.0048.0048.0092.0099.0137.0151.0044.0051.0088.0102.0136.015.0046.0055.0099.0104.0149.0151l.007.0068.0219.0218c.0082.0069.015.0137.0232.0219.0069.0069.0151.0137.0219.0192l.026.0218.0246.0205c.0055.0041.0109.0082.0178.0137.0533.041.1107.0766.1709.1094.0047.0027.0095.0051.0143.0075s.0096.0048.0144.0075c.0287.0151.0574.0287.0875.041l.015.0062.015.0061.0151.0062.015.0062c.0096.0041.0205.0082.0301.0109.0055.002.0106.0038.0157.0055.0052.0017.0103.0034.0157.0054.011.0041.0206.0069.0315.0096.0055.0014.0106.0031.0157.0048s.0103.0034.0157.0048l.0329.0082c.0205.0054.041.0109.0615.015.0013 0 .0027.0004.0041.0007.0013.0003.0027.0007.0041.0007.0048.0007.0092.0017.0136.0027.0045.001.0089.0021.0137.0027h.0028c.0047.0007.0099.0018.015.0028.0051.001.0103.002.015.0027.0014 0 .0024.0004.0035.0007.001.0003.002.0007.0034.0007l.0232.0041c.0041.0014.0068.0014.0109.0014l.0629.0082h.0041c.0041.0006.0086.001.013.0013.0045.0004.0089.0007.013.0014.0028 0 .0051.0003.0075.0007.0024.0003.0048.0007.0076.0007.0034 0 .0068.0003.0102.0006.0034.0004.0068.0007.0103.0007h.0095c.005 0 .01.0004.0148.0007.0044.0004.0086.0007.0126.0007h.0027v.6877zm-.1252-.6968c.0066.0007.0132.0014.0199.0023l-.0629-.0083c.0142.0029.0284.0044.043.006zm1.2989-3.1101c.0099.0148.019.0296.0281.0444-.0042-.0067-.0085-.0135-.0129-.0203-.0051-.0079-.0102-.0159-.0152-.0241zm0 0c-.0021-.0034-.0041-.0068-.0061-.0103l-.9748-1.4752.6836 1.035.2912.4416c.0021.003.0041.0059.0061.0089zm.1593.3096c-.0178-.0437-.0369-.0875-.0574-.1299.0219.0424.041.0862.0574.1299zm.0615.1805c-.0115-.0399-.0236-.0792-.037-.1179.0138.0393.0263.0786.037.1179zm-.037-.1179c-.0073-.0211-.0149-.0419-.0231-.0626.008.0209.0158.0417.0231.0626zm.0584.2044c.0042.0181.0083.0362.0114.0543-.0021-.0098-.0041-.0194-.006-.0287-.0018-.0087-.0035-.0172-.0054-.0256zm-.0036-.0154c.0013.0051.0025.0102.0036.0154-.0012-.0051-.0024-.0103-.0036-.0154z" fill-rule="evenodd"/></g></svg>