<svg fill="none" height="32" viewBox="0 0 32 32" width="32" xmlns="http://www.w3.org/2000/svg"><g fill="#857bff"><rect height="32" opacity=".1" rx="8" width="32"/><path clip-rule="evenodd" d="m22.7085 11.2004c.1692.0987.2742.2805.2742.4764h.0094v9.7654c0 .4137-.1645.8102-.456 1.1017-.2931.2915-.688.4561-1.1018.4561h-10.1571c-1.1222-.0486-2.05152-.8855-2.21765-1.9966 0-.0062-.00635-.0583-.01491-.1285-.01764-.1447-.04464-.3662-.04464-.4201v-8.1495c.00313-.8792.35419-1.7208.97795-2.34144.62375-.61905 1.46845-.96697 2.34765-.96384h7.9897c.2837.02508.5015.26329.5.54853v8.88925c0 .1458-.058.2853-.1614.3887-.1035.1034-.243.1614-.3887.1614h-8.988c-.7068.0987-1.2178.7272-1.1692 1.4387-.0047.7899.6285 1.4372 1.4184 1.4481h9.9095c.2492 0 .4498-.2021.4498-.4498v-9.7481c0-.1974.105-.3777.2742-.4764.0833-.0485.178-.0741.2743-.0741.0964 0 .191.0256.2743.0741zm-10.0725 8.6855h7.6997c.1959 0 .3777.105.4764.2743.0988.1708.0988.3808 0 .5501-.0987.1692-.2805.2743-.4764.2743h-7.6997c-.1975 0-.3777-.1051-.4765-.2743-.0987-.1708-.0987-.3808 0-.5501.0988-.1693.2805-.2743.4765-.2743z" fill-rule="evenodd"/></g></svg>